<?xml version="1.0" encoding="UTF-8"?> <svg xmlns="http://www.w3.org/2000/svg" xmlns:xlink="http://www.w3.org/1999/xlink" version="1.1" id="Layer_1" x="0px" y="0px" viewBox="0 0 1255.6 368.7" style="enable-background:new 0 0 1255.6 368.7;" xml:space="preserve"> <style type="text/css"> .st0{fill:#FFFFFF;} .st1{fill:#244D9D;} .st2{fill-rule:evenodd;clip-rule:evenodd;fill:#244D9D;} </style> <polygon class="st0" points="456.1,315.7 334.8,315.7 161.1,346.9 0,315.7 0,81.2 125.9,24.4 302.7,24.4 456.1,81.2 "></polygon> <path class="st0" d="M1240.1,15.9H645.2c-32.1,0-60.1,22.8-66.7,54.3l-50.2,240.9c-3.2,15.1-9.3,29.4-17.9,42.1l661.8-0.5 c38.2,0,68.1-29.1,68.1-66.2L1240,124l0.1-86.7V15.9z"></path> <g> <path class="st1" d="M477.1,368.7l11.6-12.9c12.2-13.6,20.6-30.2,24.4-47.9L563.3,67c8.1-38.6,42.5-66.6,81.9-66.6h610.4 l-0.1,123.6l0.1,162.5c0,45.8-36.7,81.7-83.5,81.7L477.1,368.7z M1240.1,15.9H645.2c-32.1,0-60.1,22.8-66.7,54.3l-50.2,240.9 c-3.2,15.1-9.3,29.4-17.9,42.1l661.8-0.5c38.2,0,68.1-29.1,68.1-66.2L1240,124l0.1-86.7V15.9z"></path> <path class="st2" d="M736.2,235.3c8.6-5.1,20.7-8.8,31.9-8.8c14.1,0,23.9,5.7,23.9,20.7c0,2.5-0.6,4.7-1,6.8 c-4.7-0.2-9.8-0.6-13.9-0.6c-35,0-61.8,8.4-61.8,38.1c0,19.6,15.8,28.9,33.4,28.9c13.9,0,27.4-7.4,34-19.9h0.4 c-1.2,6.1-2.5,12.3-3.5,17.4h17.8c2.7-18.4,7-37.9,10.8-57.3c1-4.9,1.8-11.7,1.8-16.4c0-25-20.3-33.1-41.3-33.1 c-7.6,0-19.8,2.3-29.1,5.3L736.2,235.3L736.2,235.3z M753,304.6c-9.2,0-17.2-4.9-17.2-14.1c0-19,21.9-22.9,36.4-22.9h14.7 C784.7,285.2,772.4,304.6,753,304.6L753,304.6z"></path> <path class="st1" d="M903.3,216.7c-8.6-3.5-18-5.7-27.2-5.7c-17.2,0-39.3,8.6-39.3,30.7c0,26.4,35.6,29.1,35.6,46.9 c0,11.9-11.5,16.2-21.9,16.2c-8.4,0-16.4-2.9-23.9-5.9l-3.7,16.6c7.8,2.7,13.9,4.9,30.5,4.9c16.4,0,39.5-8.2,39.5-33.4 c0-29.1-35.6-29.9-35.6-47.7c0-10.4,11-12.7,19.4-12.7c7.2,0,15.6,2.7,20.9,5.3L903.3,216.7L903.3,216.7z"></path> <path class="st1" d="M982.9,216.7c-8.6-3.5-18-5.7-27.2-5.7c-17.2,0-39.3,8.6-39.3,30.7c0,26.4,35.6,29.1,35.6,46.9 c0,11.9-11.5,16.2-21.9,16.2c-8.4,0-16.4-2.9-23.9-5.9l-3.7,16.6c7.8,2.7,13.9,4.9,30.5,4.9c16.4,0,39.5-8.2,39.5-33.4 c0-29.1-35.6-29.9-35.6-47.7c0-10.4,11-12.7,19.4-12.7c7.2,0,15.6,2.7,20.9,5.3L982.9,216.7L982.9,216.7z"></path> <polygon class="st1" points="991.3,317.7 1010.5,317.7 1032.6,213.4 1013.4,213.4 "></polygon> <path class="st1" d="M1119.4,216.7c-8.6-3.5-18-5.7-27.2-5.7c-17.2,0-39.3,8.6-39.3,30.7c0,26.4,35.6,29.1,35.6,46.9 c0,11.9-11.5,16.2-21.9,16.2c-8.4,0-16.4-2.9-23.9-5.9l-3.7,16.6c7.8,2.7,13.9,4.9,30.5,4.9c16.4,0,39.5-8.2,39.5-33.4 c0-29.1-35.6-29.9-35.6-47.7c0-10.4,11.1-12.7,19.4-12.7c7.2,0,15.5,2.7,20.9,5.3L1119.4,216.7L1119.4,216.7z"></path> <path class="st1" d="M1131.6,228.9h22.9l-9,43.6c-1.2,5.7-3.7,17.8-3.7,24.6c0,11,6.8,23.1,25,23.1c5.5,0,14.5-0.6,18.8-2.3l2.9-16 c-3.7,1.6-9.4,2.7-13.5,2.7c-9.8,0-13.9-3.9-13.9-11.3c0-3.7,2-14.9,3.1-19.6l9.6-44.8h28.9l3.1-15.5H1177l6.5-31.3l-20.7,7.2 l-5.1,24.1h-23.3L1131.6,228.9L1131.6,228.9z"></path> <path class="st1" d="M612.3,183.7H646l15.4-73.9h23.9l4.9-23.6h-23.9l1.2-6c2-9.5,6.6-15.5,15.2-15.5c5.1,0,7.7,0.6,10.3,1.5 l6.9-23.2c-4.1-0.7-9.5-1.9-16.8-1.9c-26.9,0-42.7,10.1-48.8,39.1l-1.3,6h-20.4l-4.9,23.6h19.8L612.3,183.7L612.3,183.7z"></path> <polygon class="st1" points="687.5,183.7 721.2,183.7 750.5,43.4 716.8,43.4 "></polygon> <path class="st2" d="M850.9,144.8l1.3-6.2c6.1-29-1.7-54.6-37.8-54.6c-30.3,0-56.1,18.7-62.8,50.9s13.8,51.1,46,51.1 c12.5,0,25.3-1.9,37-6.2l5-23.8c-11.2,5.4-22.1,7.5-31.3,7.5c-16.5,0-25.7-5.2-24.7-18.7H850.9L850.9,144.8z M787.2,125.7 c3.1-11.2,10.8-20.4,23-20.4c13.5,0,16.8,9.2,14.4,20.4H787.2L787.2,125.7z"></path> <path class="st2" d="M965.2,144.8l1.3-6.2c6.1-29-1.7-54.6-37.8-54.6c-30.3,0-56.1,18.7-62.8,50.9s13.8,51.1,46,51.1 c12.5,0,25.3-1.9,37-6.2l5-23.8c-11.2,5.4-22.1,7.5-31.3,7.5c-16.5,0-25.7-5.2-24.7-18.7H965.2L965.2,144.8z M901.5,125.7 c3.1-11.2,10.8-20.4,23-20.4c13.5,0,16.8,9.2,14.4,20.4H901.5L901.5,125.7z"></path> <path class="st1" d="M1043.5,163.3c-1.2,0.1-3,0.2-5.9,0.2c-10.7,0-12.2-6-9.8-17.8l7.5-35.9h23.6l4.9-23.6h-23.6l6.7-32.2 l-35.3,10.3l-4.6,21.9h-19.8l-4.9,23.6h19.3l-8.3,39.7c-4.8,23.2-0.3,36.5,29.8,36.5c8.4,0,9.2-1.1,15.8-1.9c0,0,0.2-0.5,0.3-0.5 L1043.5,163.3L1043.5,163.3z"></path> <g> <path class="st1" d="M358.5,174.5c15.8,0,28.7-12.9,28.7-28.7s-12.9-28.7-28.7-28.7c-15.8,0-28.7,12.9-28.7,28.7 S342.7,174.5,358.5,174.5z"></path> <path class="st1" d="M194.1,181.5c4.3-0.5,8.9-1.1,13.6-1.7c38.2-4.8,84.9-10.8,99.8,13.1c4.8-3.2,14-8.4,27.3-12.7 c-9.3-6.4-15.9-16.5-17.7-28.1H192.8c-1.9,12.4-9.3,23.1-19.6,29.4C180.4,182.2,187.5,182.3,194.1,181.5z"></path> <path class="st1" d="M151.4,117.1c-15.8,0-28.7,12.9-28.7,28.7s12.9,28.7,28.7,28.7s28.7-12.9,28.7-28.7 C180.1,130,167.2,117.1,151.4,117.1z"></path> <path class="st1" d="M399.6,138.3c11.4-0.9,22.5-2.7,27.6-5.6c9.5-5.5,7.7-19.2,6-24.8c-4.5-4.1-31.5-12.3-64.5-18 c-26.5-4.6-34.7-9.4-65.4-29c-27.6-17.7-43.5-17.1-43.7-17.1h-0.3h-0.2c-0.7,0-66.2-1-95.1,0c-1.2,0.2-6.2,1.4-10.1,4.8 c-3.7,3.2-15.1,20.3-22.1,31.4l-1.6,2.6l-3,0.4c-15.4,2.2-39.9,5.9-44.2,7c-8.1,2.1-9.4,8-9.5,9.2v29.4 c2.4,3.3,17.4,8.3,32.2,10.6h4.5c3.2-19.9,20.5-35.1,41.3-35.1s38,15.2,41.3,35.1h124.5c3.2-19.9,20.5-35.1,41.3-35.1 C379,104,396.1,118.8,399.6,138.3z"></path> <path class="st1" d="M81.5,0C35.8,0,0,35,0,79.6v84.8c12-3,34.5-7.7,57-7.7c14,0,32.2,5.1,53.3,11c2.2,0.6,4.5,1.3,6.8,1.9 c-3.6-5.1-6-11.1-7-17.5h-5.4l-0.5-0.1c-0.4-0.1-10.1-1.5-20-4.4c-10.2-3-23.9-8.2-23.9-18.7V98.3c0-0.7,1.2-16.4,19.3-21.2 c5.5-1.4,33-5.5,42.6-6.9c5-7.8,17.3-26.9,23-31.8c7.3-6.3,16.1-7.8,17.1-7.9l0.7-0.1c28.2-1,91.5-0.1,96,0 c3.3-0.2,21.4,0,51.4,19.2s36.4,23,60.5,27.2c15,2.6,31.4,6.3,43.9,9.8c23,6.5,28.9,11.2,30.6,16.3c3.4,9.9,5.3,31.3-11.6,41 c-7.6,4.4-21.5,6.4-33.8,7.4c-1.1,8.2-4.6,15.7-9.8,21.7c50.8,2,62.5,28.3,62.5,37.7c0,7.1-2.3,12.9-7,17.3 c-11.3,10.9-33,10.1-52.1,9.4c-1.3,0-2.6-0.1-3.9-0.1c-22-0.7-46.7,9.3-53.3,18.4c-9.2,12.6-41,30.2-76.4,36.5 c-24.4,4.4-42.8,15.5-58.9,25.3c-16.4,9.9-31.8,19.3-49.9,19.3c-25,0-46.2-6.6-68.5-13.6c-24.2-7.5-49.2-15.3-82.5-16.2v61.4 h388.3c39.1,0,72.8-27.9,80.2-66.2l51.4-246.5c4.5-18.2,13.6-34.9,26.2-48.3l7.1-7.6H81.5V0z"></path> <path class="st1" d="M57,169.9c-23.1,0-46.8,5.5-57,8.1v68.4v47.7c35.4,0.9,62.4,9.3,86.4,16.8c21.4,6.7,41.6,13,64.6,13 c14.5,0,27.8-8.1,43.1-17.4c17.2-10.4,36.6-22.2,63.4-27c33.5-6,61.5-22.3,68.1-31.3c10-13.7,39.5-24.6,64.4-23.8 c1.3,0,2.6,0.1,3.9,0.1c14.8,0.5,35.2,1.3,42.5-5.8c1.3-1.2,2.9-3.4,2.9-7.9c0-4.1-9.7-24.7-55.7-24.7c-24.6,0-42.9,5.4-53.8,9.9 c-11.4,4.7-17.5,9.4-18.1,9.9c0.2,1.5,0.3,3.1,0.3,4.7c0,10.3-3.5,18.7-10.5,25c-18.9,17.1-58,13.2-81.3,10.9 c-2.1-0.2-4.1-0.4-5.8-0.6c-1.7-0.2-3.4-0.3-5.1-0.5c-24.9-2.4-55.8-5.4-137.8,18.3c-3.5,1-7.1-1-8.1-4.5s1-7.1,4.5-8.1 c84.4-24.4,118.1-21.1,142.7-18.7c1.7,0.2,3.4,0.3,5,0.5c1.8,0.2,3.8,0.4,6,0.6c19.8,2,56.6,5.6,71.2-7.5 c4.2-3.8,6.2-8.8,6.2-15.3c0-2.1-0.2-4-0.6-5.8v-0.1c-3.1-12.6-18.6-15.1-29.9-16c-17.5-1.3-39.7,1.5-59.2,4 c-4.8,0.6-9.4,1.2-13.8,1.7c-27.3,3.2-60-6-88.8-14.1C87.5,175,69.2,169.9,57,169.9z"></path> </g> </g> </svg> 